<?xml version="1.0" encoding="UTF-8"?>
<svg width="1000px" height="1000px" viewBox="0 0 1000 1000" version="1.1" xmlns="http://www.w3.org/2000/svg" xmlns:xlink="http://www.w3.org/1999/xlink">
    <!-- Generator: Sketch 61.2 (89653) - https://sketch.com -->
    <title>graphic</title>
    <desc>Created with Sketch.</desc>
    <g id="graphic" stroke="none" stroke-width="1" fill="none" fill-rule="evenodd">
        <g id="vector" transform="translate(12.000000, 37.000000)">
            <polygon id="line-outlines" fill="#004860" fill-rule="nonzero" points="345.072428 35.5038491 488.579 442.107 606.076923 160.115385 619.923077 165.884615 504.22 443.571 908.925615 181.703224 917.074385 194.296776 508.899 458.409 839.06066 505.575379 836.93934 520.424621 509.213 473.606 768.303301 732.696699 757.696699 743.303301 494.448 480.055 470.485394 863.467837 455.514606 862.532163 478.88 488.671 369.103001 642.359286 356.896999 633.640714 462.902 485.233 216.591391 619.584217 209.408609 606.415783 458.586 470.5 38 470.5 38 455.5 464.936 455.5 208.588712 269.065521 217.411288 256.934479 472.896 442.741 330.927572 40.4961509"></polygon>
            <circle id="center" fill="#004860" cx="488" cy="463" r="75"></circle>
            <circle id="1" fill="#187346" cx="38" cy="463" r="37.5"></circle>
            <circle id="2" fill="#187346" cx="213" cy="263" r="37.5"></circle>
            <circle id="3" fill="#187346" cx="338" cy="38" r="37.5"></circle>
            <circle id="4" fill="#187346" cx="613" cy="163" r="37.5"></circle>
            <circle id="5" fill="#187346" cx="913" cy="188" r="37.5"></circle>
            <circle id="6" fill="#187346" cx="838" cy="513" r="37.5"></circle>
            <circle id="7" fill="#187346" cx="763" cy="738" r="37.5"></circle>
            <circle id="8" fill="#187346" cx="463" cy="863" r="37.5"></circle>
            <circle id="9" fill="#187346" cx="363" cy="638" r="37.5"></circle>
            <circle id="10" fill="#187346" cx="213" cy="613" r="37.5"></circle>
        </g>
    </g>
</svg>